<svg width="19" height="19" viewBox="0 0 19 19" fill="none" xmlns="http://www.w3.org/2000/svg">
<path fill-rule="evenodd" clip-rule="evenodd" d="M9.51082 12.0575L15.9093 18.4487C16.2489 18.7878 16.7094 18.9784 17.1895 18.9784C17.6697 18.9784 18.1302 18.7878 18.4697 18.4487C18.8093 18.1096 19 17.6496 19 17.17C19 16.6903 18.8093 16.2304 18.4697 15.8912L12.0688 9.5L18.4685 3.10876C18.6366 2.94084 18.7698 2.7415 18.8607 2.52212C18.9517 2.30275 18.9984 2.06764 18.9984 1.83021C18.9983 1.59278 18.9514 1.35769 18.8604 1.13836C18.7694 0.919031 18.636 0.719754 18.4679 0.551908C18.2998 0.384062 18.1002 0.250935 17.8806 0.160127C17.661 0.0693201 17.4256 0.0226109 17.1879 0.0226669C16.9502 0.0227228 16.7148 0.0695426 16.4953 0.160453C16.2757 0.251364 16.0762 0.384585 15.9081 0.552511L9.51082 6.94375L3.11229 0.552511C2.94542 0.379769 2.74577 0.241953 2.525 0.147104C2.30423 0.052256 2.06677 0.0022741 1.82645 7.58123e-05C1.58614 -0.00212247 1.3478 0.0435064 1.12533 0.1343C0.902858 0.225094 0.700719 0.359235 0.530705 0.528895C0.360691 0.698555 0.226207 0.900337 0.1351 1.12247C0.0439926 1.3446 -0.00191312 1.58263 6.10735e-05 1.82267C0.00203526 2.06271 0.0518497 2.29995 0.146598 2.52056C0.241347 2.74116 0.379131 2.94071 0.551913 3.10756L6.95286 9.5L0.55312 15.8924C0.380338 16.0593 0.242554 16.2588 0.147805 16.4794C0.0530567 16.7 0.00324176 16.9373 0.00126757 17.1773C-0.000706617 17.4174 0.0451991 17.6554 0.136306 17.8775C0.227414 18.0997 0.361898 18.3014 0.531912 18.4711C0.701925 18.6408 0.904064 18.7749 1.12653 18.8657C1.349 18.9565 1.58735 19.0021 1.82766 18.9999C2.06797 18.9977 2.30544 18.9477 2.52621 18.8529C2.74698 18.758 2.94662 18.6202 3.1135 18.4475L9.51082 12.0575Z" fill="white"/>
</svg>
