<svg width="40" height="40" viewBox="0 0 40 40" fill="none" xmlns="http://www.w3.org/2000/svg">
<path d="M13.0002 3.33301H27.0002C32.3335 3.33301 36.6668 7.66634 36.6668 12.9997V26.9997C36.6668 29.5634 35.6484 32.0222 33.8355 33.835C32.0227 35.6479 29.5639 36.6663 27.0002 36.6663H13.0002C7.66683 36.6663 3.3335 32.333 3.3335 26.9997V12.9997C3.3335 10.4359 4.35195 7.97716 6.1648 6.16431C7.97765 4.35146 10.4364 3.33301 13.0002 3.33301ZM12.6668 6.66634C11.0755 6.66634 9.54941 7.29848 8.42419 8.4237C7.29897 9.54892 6.66683 11.075 6.66683 12.6663V27.333C6.66683 30.6497 9.35016 33.333 12.6668 33.333H27.3335C28.9248 33.333 30.4509 32.7009 31.5761 31.5757C32.7014 30.4504 33.3335 28.9243 33.3335 27.333V12.6663C33.3335 9.34967 30.6502 6.66634 27.3335 6.66634H12.6668ZM28.7502 9.16634C29.3027 9.16634 29.8326 9.38583 30.2233 9.77654C30.614 10.1672 30.8335 10.6971 30.8335 11.2497C30.8335 11.8022 30.614 12.3321 30.2233 12.7228C29.8326 13.1135 29.3027 13.333 28.7502 13.333C28.1976 13.333 27.6677 13.1135 27.277 12.7228C26.8863 12.3321 26.6668 11.8022 26.6668 11.2497C26.6668 10.6971 26.8863 10.1672 27.277 9.77654C27.6677 9.38583 28.1976 9.16634 28.7502 9.16634ZM20.0002 11.6663C22.2103 11.6663 24.3299 12.5443 25.8927 14.1071C27.4555 15.6699 28.3335 17.7895 28.3335 19.9997C28.3335 22.2098 27.4555 24.3294 25.8927 25.8922C24.3299 27.455 22.2103 28.333 20.0002 28.333C17.79 28.333 15.6704 27.455 14.1076 25.8922C12.5448 24.3294 11.6668 22.2098 11.6668 19.9997C11.6668 17.7895 12.5448 15.6699 14.1076 14.1071C15.6704 12.5443 17.79 11.6663 20.0002 11.6663ZM20.0002 14.9997C18.6741 14.9997 17.4023 15.5265 16.4646 16.4641C15.5269 17.4018 15.0002 18.6736 15.0002 19.9997C15.0002 21.3258 15.5269 22.5975 16.4646 23.5352C17.4023 24.4729 18.6741 24.9997 20.0002 24.9997C21.3262 24.9997 22.598 24.4729 23.5357 23.5352C24.4734 22.5975 25.0002 21.3258 25.0002 19.9997C25.0002 18.6736 24.4734 17.4018 23.5357 16.4641C22.598 15.5265 21.3262 14.9997 20.0002 14.9997Z" fill="white"/>
</svg>
