<svg width="131" height="22" viewBox="0 0 131 22" fill="none" xmlns="http://www.w3.org/2000/svg">
<path d="M15.4384 19.824C14.8784 20.2347 14.0944 20.58 13.0864 20.86C12.0971 21.1213 10.8091 21.252 9.22241 21.252C7.65441 21.252 6.16107 21.1213 4.74241 20.86C3.32374 20.5987 2.30641 20.3093 1.69041 19.992C1.07441 19.6747 0.766406 19.3667 0.766406 19.068C0.766406 18.0227 0.91574 16.94 1.21441 15.82C1.51307 14.6813 1.86774 14.112 2.27841 14.112C2.35307 14.112 3.12774 14.364 4.60241 14.868C6.07707 15.372 7.18774 15.624 7.93441 15.624C8.68107 15.624 9.16641 15.5493 9.39041 15.4C9.61441 15.232 9.72641 14.9987 9.72641 14.7C9.72641 14.4013 9.52107 14.14 9.11041 13.916C8.69974 13.6733 8.18641 13.468 7.57041 13.3C6.95441 13.1133 6.28241 12.852 5.55441 12.516C4.84507 12.18 4.18241 11.8067 3.56641 11.396C2.95041 10.9853 2.43707 10.4067 2.02641 9.66C1.61574 8.89467 1.41041 8.02667 1.41041 7.056C1.41041 2.912 3.88374 0.839999 8.83041 0.839999C10.6784 0.839999 12.2744 0.961333 13.6184 1.204C14.9624 1.428 15.9051 1.68933 16.4464 1.988C17.0064 2.268 17.2864 2.548 17.2864 2.828C17.2864 3.79867 17.0531 4.844 16.5864 5.964C16.1384 7.084 15.6997 7.644 15.2704 7.644C15.1957 7.644 14.9531 7.56 14.5424 7.392C13.3104 6.85067 12.2837 6.58 11.4624 6.58C10.6597 6.58 10.1091 6.65467 9.81041 6.804C9.53041 6.95333 9.39041 7.18667 9.39041 7.504C9.39041 7.80267 9.59574 8.05467 10.0064 8.26C10.4171 8.44667 10.9211 8.624 11.5184 8.792C12.1344 8.94133 12.7971 9.184 13.5064 9.52C14.2344 9.83733 14.9064 10.22 15.5224 10.668C16.1384 11.0973 16.6517 11.7133 17.0624 12.516C17.4731 13.3187 17.6784 14.252 17.6784 15.316C17.6784 16.436 17.3891 17.4533 16.8104 18.368C16.4557 18.928 15.9984 19.4133 15.4384 19.824ZM27.3187 20.188C27.3187 20.4307 26.7494 20.6267 25.6107 20.776C24.4907 20.9253 23.3521 21 22.1947 21C21.0561 21 20.3187 20.9347 19.9827 20.804C19.6654 20.6733 19.5067 20.468 19.5067 20.188V2.968C19.5067 2.50133 20.0481 2.08133 21.1307 1.708C22.2134 1.316 23.3894 1.12 24.6587 1.12C26.4321 1.12 27.3187 1.54 27.3187 2.38V8.54H29.8107V2.968C29.8107 2.50133 30.3521 2.08133 31.4347 1.708C32.5361 1.316 33.7214 1.12 34.9907 1.12C36.7454 1.12 37.6227 1.54 37.6227 2.38V20.188C37.6227 20.4307 37.0534 20.6267 35.9147 20.776C34.7761 20.9253 33.6374 21 32.4987 21C31.3601 21 30.6227 20.9347 30.2867 20.804C29.9694 20.6733 29.8107 20.468 29.8107 20.188V13.776H27.3187V20.188ZM47.5785 19.572C47.5411 20.1133 47.2518 20.4867 46.7105 20.692C46.1878 20.8973 45.2358 21 43.8545 21C42.4731 21 41.3158 20.8787 40.3825 20.636C39.4678 20.3747 39.0105 20.048 39.0105 19.656C39.0105 19.208 39.8411 16.352 41.5025 11.088C43.1638 5.80533 44.1158 2.76267 44.3585 1.96C44.4518 1.71733 45.1985 1.52133 46.5985 1.372C48.0171 1.204 49.5291 1.12 51.1345 1.12C52.7585 1.12 53.6545 1.4 53.8225 1.96C57.3505 13.6827 59.1145 19.6373 59.1145 19.824C59.1145 20.0107 59.0025 20.1973 58.7785 20.384C58.2558 20.7947 57.2198 21 55.6705 21C52.3665 21 50.6771 20.608 50.6025 19.824L50.4065 18.004H47.7185L47.5785 19.572ZM49.8185 12.684L49.3985 7.644H48.7825L48.3065 12.684H49.8185ZM68.3343 20.132C68.3343 20.3747 67.7557 20.5707 66.5983 20.72C65.4597 20.8693 64.321 20.944 63.1823 20.944C62.0437 20.944 61.3157 20.8787 60.9983 20.748C60.681 20.6173 60.5223 20.412 60.5223 20.132V2.968C60.5223 2.48267 61.045 2.05333 62.0903 1.68C63.1543 1.30667 64.377 1.12 65.7583 1.12C66.897 1.12 67.6343 1.344 67.9703 1.792C68.213 2.10933 68.3343 2.39867 68.3343 2.66V7.28H68.5583C68.5583 7.18667 68.8383 6.412 69.3983 4.956C70.4623 2.212 71.237 0.839999 71.7223 0.839999C72.637 0.839999 73.925 1.11067 75.5863 1.652C76.389 1.91333 77.0797 2.296 77.6583 2.8C78.237 3.28533 78.5263 3.82667 78.5263 4.424C78.5263 4.79733 78.1437 5.52533 77.3783 6.608C76.6317 7.672 75.493 9.1 73.9623 10.892C74.317 11.2653 74.765 11.7413 75.3063 12.32C75.8477 12.8987 76.5663 13.7667 77.4623 14.924C78.377 16.0627 78.8343 16.8747 78.8343 17.36C78.8343 17.8453 78.3957 18.4147 77.5183 19.068C76.641 19.7027 75.7077 20.2253 74.7183 20.636C73.729 21.028 72.9917 21.224 72.5063 21.224C72.189 21.224 71.7503 20.748 71.1903 19.796C70.649 18.8253 69.9863 17.3787 69.2023 15.456L68.3343 16.492V20.132ZM94.5699 21H82.6979C81.7832 21 81.1672 20.9347 80.8499 20.804C80.5326 20.6733 80.3739 20.468 80.3739 20.188V2.464C80.3739 1.97867 80.5886 1.63333 81.0179 1.428C81.4659 1.22267 82.2592 1.12 83.3979 1.12H94.6539C95.0459 1.12 95.2419 1.77333 95.2419 3.08C95.2419 4.368 95.1579 5.35733 94.9899 6.048C94.8219 6.72 94.5979 7.056 94.3179 7.056C93.1046 7.056 91.0606 6.93467 88.1859 6.692V8.568C90.9486 8.456 92.7499 8.4 93.5899 8.4C94.0939 8.4 94.3459 8.988 94.3459 10.164C94.3459 11.34 94.2432 12.236 94.0379 12.852C93.8512 13.4493 93.5899 13.748 93.2539 13.748L88.1859 13.636V15.428C91.4339 15.1853 93.6739 15.064 94.9059 15.064C95.2979 15.064 95.4939 15.7173 95.4939 17.024C95.4939 18.3307 95.4099 19.32 95.2419 19.992C95.0739 20.664 94.8499 21 94.5699 21Z" fill="white"/>
<path d="M111.565 20.328C111.565 20.5333 110.995 20.7013 109.857 20.832C108.718 20.944 107.57 21 106.413 21C105.274 21 104.546 20.9533 104.229 20.86C103.911 20.748 103.753 20.5707 103.753 20.328V2.912C103.753 2.50133 104.294 2.1 105.377 1.708C106.459 1.29733 107.673 1.092 109.017 1.092C110.211 1.092 110.995 1.344 111.369 1.848C111.499 2.03467 111.565 2.22133 111.565 2.408V20.328ZM125.715 20.328C125.715 20.5333 125.137 20.7013 123.979 20.832C122.841 20.944 121.693 21 120.535 21C119.397 21 118.669 20.9533 118.351 20.86C118.053 20.748 117.903 20.5707 117.903 20.328V8.288H114.011C113.806 8.288 113.629 8.02667 113.479 7.504C113.33 6.98133 113.255 6.20667 113.255 5.18C113.255 4.13467 113.367 3.20133 113.591 2.38C113.815 1.54 114.114 1.12 114.487 1.12H129.635C129.915 1.12 130.102 1.38133 130.195 1.904C130.307 2.42667 130.363 3.18267 130.363 4.172C130.363 5.16133 130.261 6.09467 130.055 6.972C129.85 7.84933 129.57 8.288 129.215 8.288H125.715V20.328Z" fill="#FD96A9"/>
</svg>
