<svg width="23" height="19" viewBox="0 0 23 19" fill="none" xmlns="http://www.w3.org/2000/svg">
<path fill-rule="evenodd" clip-rule="evenodd" d="M0.833496 1.58333C0.833496 1.16341 1.00031 0.760681 1.29724 0.463748C1.59418 0.166815 1.9969 0 2.41683 0H21.4168C21.8368 0 22.2395 0.166815 22.5364 0.463748C22.8333 0.760681 23.0002 1.16341 23.0002 1.58333C23.0002 2.00326 22.8333 2.40599 22.5364 2.70292C22.2395 2.99985 21.8368 3.16667 21.4168 3.16667H2.41683C1.9969 3.16667 1.59418 2.99985 1.29724 2.70292C1.00031 2.40599 0.833496 2.00326 0.833496 1.58333ZM0.833496 9.5C0.833496 9.08007 1.00031 8.67735 1.29724 8.38041C1.59418 8.08348 1.9969 7.91667 2.41683 7.91667H21.4168C21.8368 7.91667 22.2395 8.08348 22.5364 8.38041C22.8333 8.67735 23.0002 9.08007 23.0002 9.5C23.0002 9.91993 22.8333 10.3227 22.5364 10.6196C22.2395 10.9165 21.8368 11.0833 21.4168 11.0833H2.41683C1.9969 11.0833 1.59418 10.9165 1.29724 10.6196C1.00031 10.3227 0.833496 9.91993 0.833496 9.5ZM0.833496 17.4167C0.833496 16.9967 1.00031 16.594 1.29724 16.2971C1.59418 16.0001 1.9969 15.8333 2.41683 15.8333H21.4168C21.8368 15.8333 22.2395 16.0001 22.5364 16.2971C22.8333 16.594 23.0002 16.9967 23.0002 17.4167C23.0002 17.8366 22.8333 18.2393 22.5364 18.5363C22.2395 18.8332 21.8368 19 21.4168 19H2.41683C1.9969 19 1.59418 18.8332 1.29724 18.5363C1.00031 18.2393 0.833496 17.8366 0.833496 17.4167Z" fill="white"/>
</svg>
