<svg width="40" height="40" viewBox="0 0 40 40" fill="none" xmlns="http://www.w3.org/2000/svg">
<path d="M20.0002 3.33301C10.8002 3.33301 3.3335 10.7997 3.3335 19.9997C3.3335 29.1997 10.8002 36.6663 20.0002 36.6663C29.2002 36.6663 36.6668 29.1997 36.6668 19.9997C36.6668 10.7997 29.2002 3.33301 20.0002 3.33301ZM27.7335 14.6663C27.4835 17.2997 26.4002 23.6997 25.8502 26.6497C25.6168 27.8997 25.1502 28.3163 24.7168 28.3663C23.7502 28.4497 23.0168 27.733 22.0835 27.1163C20.6168 26.1497 19.7835 25.5497 18.3668 24.6163C16.7168 23.533 17.7835 22.933 18.7335 21.9663C18.9835 21.7163 23.2502 17.833 23.3335 17.483C23.3451 17.43 23.3435 17.375 23.329 17.3227C23.3145 17.2704 23.2874 17.2225 23.2502 17.183C23.1502 17.0997 23.0168 17.133 22.9002 17.1497C22.7502 17.183 20.4168 18.733 15.8668 21.7997C15.2002 22.2497 14.6002 22.483 14.0668 22.4663C13.4668 22.4497 12.3335 22.133 11.4835 21.8497C10.4335 21.5163 9.61683 21.333 9.6835 20.7497C9.71683 20.4497 10.1335 20.1497 10.9168 19.833C15.7835 17.7163 19.0168 16.3163 20.6335 15.6497C25.2668 13.7163 26.2168 13.383 26.8502 13.383C26.9835 13.383 27.3002 13.4163 27.5002 13.583C27.6668 13.7163 27.7168 13.8997 27.7335 14.033C27.7168 14.133 27.7502 14.433 27.7335 14.6663Z" fill="white"/>
</svg>
