<svg width="40" height="40" viewBox="0 0 40 40" fill="none" xmlns="http://www.w3.org/2000/svg">
<path d="M31.4283 5H8.57167C7.62467 5.00088 6.71672 5.37747 6.04709 6.04709C5.37747 6.71672 5.00088 7.62467 5 8.57167V31.4283C5 33.4 6.60167 35 8.57167 35H31.4283C32.3753 34.9991 33.2833 34.6225 33.9529 33.9529C34.6225 33.2833 34.9991 32.3753 35 31.4283V8.57167C34.9991 7.62467 34.6225 6.71672 33.9529 6.04709C33.2833 5.37747 32.3753 5.00088 31.4283 5ZM28.575 18.0883C27.5237 18.1904 26.466 17.975 25.5383 17.47C24.7559 17.0481 24.0913 16.4374 23.605 15.6933V23.9333C23.605 25.1378 23.2478 26.3153 22.5786 27.3168C21.9095 28.3182 20.9583 29.0988 19.8455 29.5598C18.7327 30.0207 17.5082 30.1413 16.3269 29.9063C15.1456 29.6713 14.0604 29.0913 13.2087 28.2396C12.357 27.3879 11.777 26.3028 11.542 25.1214C11.307 23.9401 11.4276 22.7156 11.8886 21.6028C12.3495 20.49 13.1301 19.5389 14.1316 18.8697C15.1331 18.2005 16.3105 17.8433 17.515 17.8433C17.6417 17.8433 17.765 17.855 17.89 17.8617V20.8633C17.765 20.8483 17.6433 20.825 17.515 20.825C16.6906 20.825 15.9 21.1525 15.3171 21.7354C14.7341 22.3183 14.4067 23.109 14.4067 23.9333C14.4067 24.7577 14.7341 25.5483 15.3171 26.1313C15.9 26.7142 16.6906 27.0417 17.515 27.0417C19.2317 27.0417 20.7483 25.69 20.7483 23.9733L20.7783 9.97667H23.65C23.7814 11.224 24.347 12.3856 25.2478 13.2584C26.1486 14.1312 27.3274 14.6597 28.5783 14.7517V18.0883" fill="white"/>
</svg>
