<svg width="40" height="40" viewBox="0 0 40 40" fill="none" xmlns="http://www.w3.org/2000/svg">
<path fill-rule="evenodd" clip-rule="evenodd" d="M27.7931 4.38008C22.5495 3.20794 17.1117 3.20794 11.8681 4.38008L11.3031 4.50508C9.82773 4.83396 8.47259 5.56587 7.38854 6.61931C6.3045 7.67275 5.5341 9.00639 5.16311 10.4717C3.83626 15.7096 3.83626 21.1956 5.16311 26.4334C5.51695 27.8309 6.2344 29.1098 7.24256 30.1402C8.25073 31.1706 9.51368 31.9158 10.9031 32.3001L11.6781 36.9267C11.7028 37.0737 11.7665 37.2113 11.8625 37.3252C11.9585 37.4392 12.0832 37.5253 12.2238 37.5746C12.3644 37.624 12.5156 37.6348 12.6618 37.6058C12.8079 37.5769 12.9436 37.5093 13.0548 37.4101L17.6064 33.3384C21.0232 33.5447 24.4521 33.2715 27.7931 32.5267L28.3598 32.4017C29.8351 32.0729 31.1903 31.3409 32.2743 30.2875C33.3584 29.2341 34.1288 27.9004 34.4998 26.4351C35.8266 21.1972 35.8266 15.7112 34.4998 10.4734C34.1287 9.00784 33.358 7.67406 32.2736 6.6206C31.1893 5.56714 29.8338 4.83535 28.3581 4.50674L27.7931 4.38008ZM13.2748 10.3367C12.965 10.2914 12.6491 10.3537 12.3798 10.5134H12.3564C11.7314 10.8801 11.1681 11.3417 10.6881 11.8851C10.2881 12.3467 10.0714 12.8134 10.0148 13.2634C9.98144 13.5301 10.0048 13.8001 10.0831 14.0551L10.1131 14.0717C10.5631 15.3934 11.1498 16.6651 11.8664 17.8617C12.7909 19.5423 13.9281 21.0968 15.2498 22.4867L15.2898 22.5434L15.3531 22.5901L15.3914 22.6351L15.4381 22.6751C16.8331 24.0006 18.3912 25.1432 20.0748 26.0751C21.9998 27.1234 23.1681 27.6184 23.8698 27.8251V27.8351C24.0748 27.8984 24.2614 27.9267 24.4498 27.9267C25.0477 27.8839 25.6137 27.6408 26.0564 27.2367C26.5981 26.7567 27.0564 26.1917 27.4131 25.5634V25.5517C27.7481 24.9184 27.6348 24.3217 27.1514 23.9167C26.1814 23.0674 25.1315 22.3139 24.0164 21.6667C23.2698 21.2617 22.5114 21.5067 22.2048 21.9167L21.5498 22.7434C21.2131 23.1534 20.6031 23.0967 20.6031 23.0967L20.5864 23.1067C16.0348 21.9451 14.8198 17.3367 14.8198 17.3367C14.8198 17.3367 14.7631 16.7101 15.1848 16.3901L16.0048 15.7301C16.3981 15.4101 16.6714 14.6534 16.2498 13.9067C15.6041 12.7925 14.8522 11.7431 14.0048 10.7734C13.8194 10.5457 13.5598 10.3905 13.2714 10.3351M20.9648 8.33341C20.7438 8.33341 20.5318 8.42121 20.3755 8.57749C20.2192 8.73377 20.1314 8.94573 20.1314 9.16674C20.1314 9.38776 20.2192 9.59972 20.3755 9.756C20.5318 9.91228 20.7438 10.0001 20.9648 10.0001C23.0731 10.0001 24.8231 10.6884 26.2081 12.0084C26.9198 12.7301 27.4748 13.5851 27.8381 14.5217C28.2031 15.4601 28.3698 16.4617 28.3264 17.4651C28.3218 17.5745 28.3389 17.6838 28.3765 17.7866C28.4141 17.8895 28.4716 17.9839 28.5458 18.0646C28.6955 18.2274 28.9038 18.3241 29.1248 18.3334C29.3458 18.3427 29.5614 18.2638 29.7243 18.1141C29.8871 17.9644 29.9838 17.7561 29.9931 17.5351C30.0428 16.301 29.838 15.0699 29.3914 13.9184C28.9428 12.761 28.2596 11.709 27.3848 10.8284L27.3681 10.8117C25.6498 9.17007 23.4748 8.33341 20.9648 8.33341ZM20.9081 11.0734C20.6871 11.0734 20.4751 11.1612 20.3189 11.3175C20.1626 11.4738 20.0748 11.6857 20.0748 11.9067C20.0748 12.1278 20.1626 12.3397 20.3189 12.496C20.4751 12.6523 20.6871 12.7401 20.9081 12.7401H20.9364C22.4564 12.8484 23.5631 13.3551 24.3381 14.1867C25.1331 15.0434 25.5448 16.1084 25.5131 17.4251C25.508 17.6461 25.5909 17.8601 25.7436 18.0199C25.8963 18.1798 26.1063 18.2725 26.3273 18.2776C26.5483 18.2827 26.7623 18.1997 26.9221 18.047C27.082 17.8944 27.1747 17.6844 27.1798 17.4634C27.2198 15.7351 26.6631 14.2434 25.5598 13.0534V13.0501C24.4314 11.8401 22.8831 11.2001 21.0198 11.0751L20.9914 11.0717L20.9081 11.0734ZM20.8764 13.8651C20.7649 13.8552 20.6526 13.868 20.5461 13.9025C20.4396 13.9371 20.3411 13.9927 20.2566 14.0661C20.1721 14.1396 20.1033 14.2293 20.0542 14.3299C20.0051 14.4305 19.9768 14.54 19.971 14.6518C19.9652 14.7636 19.9819 14.8755 20.0203 14.9806C20.0586 15.0858 20.1178 15.1822 20.1942 15.264C20.2706 15.3458 20.3627 15.4114 20.4651 15.4568C20.5674 15.5023 20.6778 15.5266 20.7898 15.5284C21.4864 15.5651 21.9314 15.7751 22.2114 16.0567C22.4931 16.3401 22.7031 16.7951 22.7414 17.5067C22.7435 17.6186 22.7681 17.7288 22.8137 17.831C22.8593 17.9331 22.925 18.025 23.0069 18.1012C23.0887 18.1774 23.1851 18.2364 23.2902 18.2746C23.3954 18.3127 23.5071 18.3293 23.6188 18.3234C23.7305 18.3175 23.8399 18.2891 23.9404 18.24C24.0409 18.1909 24.1305 18.1221 24.2038 18.0377C24.2772 17.9532 24.3327 17.8549 24.3673 17.7485C24.4018 17.6421 24.4146 17.5298 24.4048 17.4184C24.3514 16.4184 24.0381 15.5351 23.3964 14.8851C22.7514 14.2351 21.8731 13.9184 20.8764 13.8651Z" fill="white"/>
</svg>
