<svg width="131" height="22" viewBox="0 0 131 22" fill="none" xmlns="http://www.w3.org/2000/svg">
<path d="M15.372 19.824C14.812 20.2347 14.028 20.58 13.02 20.86C12.0307 21.1213 10.7427 21.252 9.156 21.252C7.588 21.252 6.09467 21.1213 4.676 20.86C3.25733 20.5987 2.24 20.3093 1.624 19.992C1.008 19.6747 0.7 19.3667 0.7 19.068C0.7 18.0227 0.849333 16.94 1.148 15.82C1.44667 14.6813 1.80133 14.112 2.212 14.112C2.28667 14.112 3.06133 14.364 4.536 14.868C6.01067 15.372 7.12133 15.624 7.868 15.624C8.61467 15.624 9.1 15.5493 9.324 15.4C9.548 15.232 9.66 14.9987 9.66 14.7C9.66 14.4013 9.45467 14.14 9.044 13.916C8.63333 13.6733 8.12 13.468 7.504 13.3C6.888 13.1133 6.216 12.852 5.488 12.516C4.77867 12.18 4.116 11.8067 3.5 11.396C2.884 10.9853 2.37067 10.4067 1.96 9.66C1.54933 8.89467 1.344 8.02667 1.344 7.056C1.344 2.912 3.81733 0.839999 8.764 0.839999C10.612 0.839999 12.208 0.961333 13.552 1.204C14.896 1.428 15.8387 1.68933 16.38 1.988C16.94 2.268 17.22 2.548 17.22 2.828C17.22 3.79867 16.9867 4.844 16.52 5.964C16.072 7.084 15.6333 7.644 15.204 7.644C15.1293 7.644 14.8867 7.56 14.476 7.392C13.244 6.85067 12.2173 6.58 11.396 6.58C10.5933 6.58 10.0427 6.65467 9.744 6.804C9.464 6.95333 9.324 7.18667 9.324 7.504C9.324 7.80267 9.52933 8.05467 9.94 8.26C10.3507 8.44667 10.8547 8.624 11.452 8.792C12.068 8.94133 12.7307 9.184 13.44 9.52C14.168 9.83733 14.84 10.22 15.456 10.668C16.072 11.0973 16.5853 11.7133 16.996 12.516C17.4067 13.3187 17.612 14.252 17.612 15.316C17.612 16.436 17.3227 17.4533 16.744 18.368C16.3893 18.928 15.932 19.4133 15.372 19.824ZM27.2523 20.188C27.2523 20.4307 26.683 20.6267 25.5443 20.776C24.4243 20.9253 23.2856 21 22.1283 21C20.9896 21 20.2523 20.9347 19.9163 20.804C19.599 20.6733 19.4403 20.468 19.4403 20.188V2.968C19.4403 2.50133 19.9816 2.08133 21.0643 1.708C22.147 1.316 23.323 1.12 24.5923 1.12C26.3656 1.12 27.2523 1.54 27.2523 2.38V8.54H29.7443V2.968C29.7443 2.50133 30.2856 2.08133 31.3683 1.708C32.4696 1.316 33.655 1.12 34.9243 1.12C36.679 1.12 37.5563 1.54 37.5563 2.38V20.188C37.5563 20.4307 36.987 20.6267 35.8483 20.776C34.7096 20.9253 33.571 21 32.4323 21C31.2936 21 30.5563 20.9347 30.2203 20.804C29.903 20.6733 29.7443 20.468 29.7443 20.188V13.776H27.2523V20.188ZM47.5121 19.572C47.4747 20.1133 47.1854 20.4867 46.6441 20.692C46.1214 20.8973 45.1694 21 43.7881 21C42.4067 21 41.2494 20.8787 40.3161 20.636C39.4014 20.3747 38.9441 20.048 38.9441 19.656C38.9441 19.208 39.7747 16.352 41.4361 11.088C43.0974 5.80533 44.0494 2.76267 44.2921 1.96C44.3854 1.71733 45.1321 1.52133 46.5321 1.372C47.9507 1.204 49.4627 1.12 51.0681 1.12C52.6921 1.12 53.5881 1.4 53.7561 1.96C57.2841 13.6827 59.0481 19.6373 59.0481 19.824C59.0481 20.0107 58.9361 20.1973 58.7121 20.384C58.1894 20.7947 57.1534 21 55.6041 21C52.3001 21 50.6107 20.608 50.5361 19.824L50.3401 18.004H47.6521L47.5121 19.572ZM49.7521 12.684L49.3321 7.644H48.7161L48.2401 12.684H49.7521ZM68.2679 20.132C68.2679 20.3747 67.6893 20.5707 66.5319 20.72C65.3933 20.8693 64.2546 20.944 63.1159 20.944C61.9773 20.944 61.2493 20.8787 60.9319 20.748C60.6146 20.6173 60.4559 20.412 60.4559 20.132V2.968C60.4559 2.48267 60.9786 2.05333 62.0239 1.68C63.0879 1.30667 64.3106 1.12 65.6919 1.12C66.8306 1.12 67.5679 1.344 67.9039 1.792C68.1466 2.10933 68.2679 2.39867 68.2679 2.66V7.28H68.4919C68.4919 7.18667 68.7719 6.412 69.3319 4.956C70.3959 2.212 71.1706 0.839999 71.6559 0.839999C72.5706 0.839999 73.8586 1.11067 75.5199 1.652C76.3226 1.91333 77.0133 2.296 77.5919 2.8C78.1706 3.28533 78.4599 3.82667 78.4599 4.424C78.4599 4.79733 78.0773 5.52533 77.3119 6.608C76.5653 7.672 75.4266 9.1 73.8959 10.892C74.2506 11.2653 74.6986 11.7413 75.2399 12.32C75.7813 12.8987 76.4999 13.7667 77.3959 14.924C78.3106 16.0627 78.7679 16.8747 78.7679 17.36C78.7679 17.8453 78.3293 18.4147 77.4519 19.068C76.5746 19.7027 75.6413 20.2253 74.6519 20.636C73.6626 21.028 72.9253 21.224 72.4399 21.224C72.1226 21.224 71.6839 20.748 71.1239 19.796C70.5826 18.8253 69.9199 17.3787 69.1359 15.456L68.2679 16.492V20.132ZM94.5035 21H82.6315C81.7168 21 81.1008 20.9347 80.7835 20.804C80.4662 20.6733 80.3075 20.468 80.3075 20.188V2.464C80.3075 1.97867 80.5222 1.63333 80.9515 1.428C81.3995 1.22267 82.1928 1.12 83.3315 1.12H94.5875C94.9795 1.12 95.1755 1.77333 95.1755 3.08C95.1755 4.368 95.0915 5.35733 94.9235 6.048C94.7555 6.72 94.5315 7.056 94.2515 7.056C93.0382 7.056 90.9942 6.93467 88.1195 6.692V8.568C90.8822 8.456 92.6835 8.4 93.5235 8.4C94.0275 8.4 94.2795 8.988 94.2795 10.164C94.2795 11.34 94.1768 12.236 93.9715 12.852C93.7848 13.4493 93.5235 13.748 93.1875 13.748L88.1195 13.636V15.428C91.3675 15.1853 93.6075 15.064 94.8395 15.064C95.2315 15.064 95.4275 15.7173 95.4275 17.024C95.4275 18.3307 95.3435 19.32 95.1755 19.992C95.0075 20.664 94.7835 21 94.5035 21ZM111.498 20.328C111.498 20.5333 110.929 20.7013 109.79 20.832C108.652 20.944 107.504 21 106.346 21C105.208 21 104.48 20.9533 104.162 20.86C103.845 20.748 103.686 20.5707 103.686 20.328V2.912C103.686 2.50133 104.228 2.1 105.31 1.708C106.393 1.29733 107.606 1.092 108.95 1.092C110.145 1.092 110.929 1.344 111.302 1.848C111.433 2.03467 111.498 2.22133 111.498 2.408V20.328ZM125.649 20.328C125.649 20.5333 125.07 20.7013 123.913 20.832C122.774 20.944 121.626 21 120.469 21C119.33 21 118.602 20.9533 118.285 20.86C117.986 20.748 117.837 20.5707 117.837 20.328V8.288H113.945C113.74 8.288 113.562 8.02667 113.413 7.504C113.264 6.98133 113.189 6.20667 113.189 5.18C113.189 4.13467 113.301 3.20133 113.525 2.38C113.749 1.54 114.048 1.12 114.421 1.12H129.569C129.849 1.12 130.036 1.38133 130.129 1.904C130.241 2.42667 130.297 3.18267 130.297 4.172C130.297 5.16133 130.194 6.09467 129.989 6.972C129.784 7.84933 129.504 8.288 129.149 8.288H125.649V20.328Z" fill="white"/>
</svg>
